<?xml version="1.0" encoding="UTF-8" standalone="no"?>
<!-- Created with Inkscape (http://www.inkscape.org/) -->

<svg
   width="31.800001mm"
   height="32.000004mm"
   viewBox="0 0 31.800001 32.000004"
   version="1.1"
   id="svg5"
   inkscape:export-filename="../../../Descargas/firefox/flag.svg"
   inkscape:export-xdpi="25.559748"
   inkscape:export-ydpi="25.559748"
   inkscape:version="1.2.2 (b0a8486, 2022-12-01)"
   sodipodi:docname="MorePointsIcons.svg"
   xml:space="preserve"
   xmlns:inkscape="http://www.inkscape.org/namespaces/inkscape"
   xmlns:sodipodi="http://sodipodi.sourceforge.net/DTD/sodipodi-0.dtd"
   xmlns="http://www.w3.org/2000/svg"
   xmlns:svg="http://www.w3.org/2000/svg"><sodipodi:namedview
     id="namedview7"
     pagecolor="#ffffff"
     bordercolor="#999999"
     borderopacity="1"
     inkscape:showpageshadow="0"
     inkscape:pageopacity="0"
     inkscape:pagecheckerboard="0"
     inkscape:deskcolor="#d1d1d1"
     inkscape:document-units="mm"
     showgrid="true"
     inkscape:zoom="0.97102975"
     inkscape:cx="11.843097"
     inkscape:cy="145.72159"
     inkscape:window-width="1366"
     inkscape:window-height="713"
     inkscape:window-x="0"
     inkscape:window-y="33"
     inkscape:window-maximized="1"
     inkscape:current-layer="layer1"><inkscape:grid
       type="xygrid"
       id="grid132"
       spacingx="4.2333333"
       spacingy="4.2333333" /></sodipodi:namedview><defs
     id="defs2" /><g
     inkscape:label="Capa 1"
     inkscape:groupmode="layer"
     id="layer1"
     transform="translate(-0.19999999)"><g
       inkscape:label="Capa 1"
       id="layer1-6"
       transform="translate(-39.85453,-13.047843)"
       style="fill:#0088aa;fill-opacity:1"><rect
         style="fill:#0088aa;fill-opacity:1;stroke-width:0.755202"
         id="rect1748-2"
         width="31.999577"
         height="31.999996"
         x="39.85453"
         y="13.047843"
         ry="0"
         inkscape:export-filename="sample.svg"
         inkscape:export-xdpi="96"
         inkscape:export-ydpi="96" /><path
         id="rect1748"
         style="opacity:1;fill:#0088aa;fill-opacity:1;stroke-width:0.755202"
         d="m 48.468888,22.881395 -8.614563,9.27577 v 12.890678 h 32 v -11.56536 l -2.643155,-3.033101 -7.007895,6.614051 z" /><ellipse
         style="opacity:1;fill:#0088aa;fill-opacity:1;stroke-width:0.755202"
         id="path2150"
         cx="63.973206"
         cy="22.881397"
         rx="3.5900388"
         ry="3.598201" /></g><g
       id="SVGRepo_iconCarrier-0"
       transform="matrix(0.04046668,0,0,0.04046668,5.7888028,5.3916961)"
       style="fill:#ffffff"> <g
   id="g2934"
   style="fill:#ffffff"> <g
   id="g2932"
   style="fill:#ffffff"> <path
   d="M 495.66,332.526 H 392.17 V 199.524 h 31.591 c 14.238,0 21.673,-17.035 11.963,-27.47 L 327.878,56.137 c -6.466,-6.95 -17.474,-6.936 -23.928,0 L 196.104,172.053 c -9.699,10.424 -2.29,27.47 11.963,27.47 h 31.591 v 37.138 H 136.169 c -9.024,0 -16.34,7.316 -16.34,16.34 v 79.523 H 16.34 C 7.316,332.524 0,339.84 0,348.864 v 95.864 c 0,9.024 7.316,16.34 16.34,16.34 7.191,0 464.494,0 479.319,0 9.024,0 16.34,-7.316 16.34,-16.34 V 348.864 C 512,339.842 504.684,332.526 495.66,332.526 Z M 119.83,428.39 H 32.681 v -63.183 h 87.149 z m 119.83,0 h -87.149 c 0,-2.275 0,-156.773 0,-159.047 H 239.66 Z M 375.83,166.843 c -9.024,0 -16.34,7.316 -16.34,16.34 0,9.87 0,235.688 0,245.207 h -87.15 c 0,-36.986 0,-241.699 0,-245.207 0,-9.024 -7.316,-16.34 -16.34,-16.34 h -10.411 l 70.326,-75.588 70.326,75.588 z M 479.319,428.39 H 392.17 v -63.183 h 87.149 z"
   id="path2930"
   style="fill:#ffffff" /> </g> </g> </g></g></svg>
