<?xml version="1.0" encoding="UTF-8" standalone="no"?>
<!-- Created with Inkscape (http://www.inkscape.org/) -->

<svg
   width="31.800001mm"
   height="32.000004mm"
   viewBox="0 0 31.800001 32.000004"
   version="1.1"
   id="svg5"
   inkscape:export-filename="../../../Descargas/firefox/filebox.svg"
   inkscape:export-xdpi="25.559748"
   inkscape:export-ydpi="25.559748"
   inkscape:version="1.2.2 (b0a8486, 2022-12-01)"
   sodipodi:docname="MorePointsIcons.svg"
   xml:space="preserve"
   xmlns:inkscape="http://www.inkscape.org/namespaces/inkscape"
   xmlns:sodipodi="http://sodipodi.sourceforge.net/DTD/sodipodi-0.dtd"
   xmlns="http://www.w3.org/2000/svg"
   xmlns:svg="http://www.w3.org/2000/svg"><sodipodi:namedview
     id="namedview7"
     pagecolor="#ffffff"
     bordercolor="#999999"
     borderopacity="1"
     inkscape:showpageshadow="0"
     inkscape:pageopacity="0"
     inkscape:pagecheckerboard="0"
     inkscape:deskcolor="#d1d1d1"
     inkscape:document-units="mm"
     showgrid="true"
     inkscape:zoom="0.97102975"
     inkscape:cx="11.843097"
     inkscape:cy="145.72159"
     inkscape:window-width="1366"
     inkscape:window-height="713"
     inkscape:window-x="0"
     inkscape:window-y="33"
     inkscape:window-maximized="1"
     inkscape:current-layer="layer1"><inkscape:grid
       type="xygrid"
       id="grid132"
       spacingx="4.2333333"
       spacingy="4.2333333" /></sodipodi:namedview><defs
     id="defs2" /><g
     inkscape:label="Capa 1"
     inkscape:groupmode="layer"
     id="layer1"
     transform="translate(-0.19999999)"><g
       inkscape:label="Capa 1"
       id="layer1-6"
       transform="translate(-39.85453,-13.047843)"
       style="fill:#d4aa00;fill-opacity:1"><rect
         style="fill:#d4aa00;fill-opacity:1;stroke-width:0.755202"
         id="rect1748-2"
         width="31.999577"
         height="31.999996"
         x="39.85453"
         y="13.047843"
         ry="0"
         inkscape:export-filename="sample.svg"
         inkscape:export-xdpi="96"
         inkscape:export-ydpi="96" /><path
         id="rect1748"
         style="opacity:1;fill:#d4aa00;fill-opacity:1;stroke-width:0.755202"
         d="m 48.468888,22.881395 -8.614563,9.27577 v 12.890678 h 32 v -11.56536 l -2.643155,-3.033101 -7.007895,6.614051 z" /><ellipse
         style="opacity:1;fill:#d4aa00;fill-opacity:1;stroke-width:0.755202"
         id="path2150"
         cx="63.973206"
         cy="22.881397"
         rx="3.5900388"
         ry="3.598201" /></g><g
       id="SVGRepo_iconCarrier-3"
       transform="matrix(0.6664281,0,0,0.6664281,5.5365592,5.7979839)"
       style="fill:#ffffff;fill-opacity:1;stroke:#ffffff;stroke-opacity:1"><title
         id="title1661">archive-box</title><path
         d="M 28,1.25 H 4 C 2.482,1.252 1.252,2.482 1.25,4 v 4.001 c 0,0.414 0.336,0.75 0.75,0.75 h 1.25 v 19.247 c 0.002,1.518 1.232,2.748 2.75,2.75 h 20 c 1.518,-0.002 2.748,-1.232 2.75,-2.75 V 8.751 H 30 c 0.414,0 0.75,-0.336 0.75,-0.75 v 0 V 4 C 30.748,2.482 29.518,1.252 28,1.25 Z m -0.75,26.748 c -0.001,0.69 -0.56,1.249 -1.25,1.25 H 6 C 5.31,29.247 4.751,28.688 4.75,27.998 V 8.751 h 22.5 z m 2,-20.747 H 2.75 V 4 C 2.751,3.31 3.31,2.751 4,2.75 H 28 C 28.69,2.751 29.249,3.31 29.25,4 V 4 Z M 10,14.75 h 12 c 0.414,0 0.75,-0.336 0.75,-0.75 0,-0.414 -0.336,-0.75 -0.75,-0.75 v 0 H 10 c -0.414,0 -0.75,0.336 -0.75,0.75 0,0.414 0.336,0.75 0.75,0.75 z"
         id="path1663"
         style="fill:#ffffff;fill-opacity:1;stroke:#ffffff;stroke-opacity:1" /></g></g></svg>
