<?xml version="1.0" encoding="UTF-8" standalone="no"?>
<!-- Created with Inkscape (http://www.inkscape.org/) -->

<svg
   width="31.800001mm"
   height="32.000004mm"
   viewBox="0 0 31.800001 32.000004"
   version="1.1"
   id="svg5"
   inkscape:export-filename="../../../Descargas/firefox/document.svg"
   inkscape:export-xdpi="25.559748"
   inkscape:export-ydpi="25.559748"
   inkscape:version="1.2.2 (b0a8486, 2022-12-01)"
   sodipodi:docname="MorePointsIcons.svg"
   xml:space="preserve"
   xmlns:inkscape="http://www.inkscape.org/namespaces/inkscape"
   xmlns:sodipodi="http://sodipodi.sourceforge.net/DTD/sodipodi-0.dtd"
   xmlns="http://www.w3.org/2000/svg"
   xmlns:svg="http://www.w3.org/2000/svg"><sodipodi:namedview
     id="namedview7"
     pagecolor="#ffffff"
     bordercolor="#999999"
     borderopacity="1"
     inkscape:showpageshadow="0"
     inkscape:pageopacity="0"
     inkscape:pagecheckerboard="0"
     inkscape:deskcolor="#d1d1d1"
     inkscape:document-units="mm"
     showgrid="true"
     inkscape:zoom="0.97102975"
     inkscape:cx="11.843097"
     inkscape:cy="145.72159"
     inkscape:window-width="1366"
     inkscape:window-height="713"
     inkscape:window-x="0"
     inkscape:window-y="33"
     inkscape:window-maximized="1"
     inkscape:current-layer="layer1"><inkscape:grid
       type="xygrid"
       id="grid132"
       spacingx="4.2333333"
       spacingy="4.2333333" /></sodipodi:namedview><defs
     id="defs2" /><g
     inkscape:label="Capa 1"
     inkscape:groupmode="layer"
     id="layer1"
     transform="translate(-0.19999999)"><g
       inkscape:label="Capa 1"
       id="layer1-6"
       transform="translate(-39.85453,-13.047843)"
       style="fill:#00aa88;fill-opacity:1"><rect
         style="fill:#00aa88;fill-opacity:1;stroke-width:0.755202"
         id="rect1748-2"
         width="31.999577"
         height="31.999996"
         x="39.85453"
         y="13.047843"
         ry="0"
         inkscape:export-filename="sample.svg"
         inkscape:export-xdpi="96"
         inkscape:export-ydpi="96" /><path
         id="rect1748"
         style="opacity:1;fill:#00aa88;fill-opacity:1;stroke-width:0.755202"
         d="m 48.468888,22.881395 -8.614563,9.27577 v 12.890678 h 32 v -11.56536 l -2.643155,-3.033101 -7.007895,6.614051 z" /><ellipse
         style="opacity:1;fill:#00aa88;fill-opacity:1;stroke-width:0.755202"
         id="path2150"
         cx="63.973206"
         cy="22.881397"
         rx="3.5900388"
         ry="3.598201" /></g><g
       id="SVGRepo_iconCarrier-4"
       transform="matrix(0.04234349,0,0,0.04234349,5.0890328,5.8311153)"
       style="fill:#ffffff"> <g
   id="g2512"
   style="fill:#ffffff"> <g
   id="g2510"
   style="fill:#ffffff"> <path
   d="m 249.171,129.038 c -21.046,-6.293 -43.261,-9.49 -66.217,-9.49 C 84.23,119.548 0,180.55 0,260.764 0,302.485 22.973,341.037 63.412,367.84 l -4.759,49.376 c -1.18,12.223 11.248,21.036 22.326,16.199 l 75.405,-32.911 c 92.221,10.406 179.158,-34.229 203.102,-102.358 9.81,0.55 19.623,0.338 29.34,-0.677 l 47.908,24.049 c 10.107,5.074 22.242,-1.684 23.13,-13.053 l 2.872,-36.748 C 494.161,250.736 512,220.545 512,187.807 512,76.321 323.947,35.785 249.171,129.038 Z m 82.937,148.581 c -13.222,61.047 -94.01,101.448 -176.023,90.611 -2.888,-0.379 -5.826,0.033 -8.495,1.199 l -54.474,23.775 3.1,-32.156 C 96.814,354.843 93.754,348.856 88.375,345.706 52.548,324.723 32,293.763 32,260.764 c 0,-66.599 77.354,-109.216 150.955,-109.216 78.758,0 165.3,51.519 149.153,126.071 z m 107.219,-28.985 c -4.518,2.646 -7.456,7.338 -7.865,12.559 l -1.646,21.049 -30.924,-15.523 c -2.237,-1.122 -4.694,-1.7 -7.178,-1.7 -0.447,0 -12.855,1.73 -25.873,1.388 3.067,-55.482 -35.265,-100.509 -84.5,-124.798 -0.102,-0.051 -0.203,-0.105 -0.306,-0.156 C 344.568,79.601 480,113.146 480,187.807 c 0,23.517 -14.825,45.686 -40.673,60.827 z"
   id="path2508"
   style="fill:#ffffff" /> </g> </g> </g></g></svg>
