<?xml version="1.0" encoding="UTF-8" standalone="no"?>
<!-- Created with Inkscape (http://www.inkscape.org/) -->

<svg
   width="31.800001mm"
   height="32.000004mm"
   viewBox="0 0 31.800001 32.000004"
   version="1.1"
   id="svg5"
   inkscape:export-filename="../../../Descargas/firefox/filebox.svg"
   inkscape:export-xdpi="25.559748"
   inkscape:export-ydpi="25.559748"
   inkscape:version="1.2.2 (b0a8486, 2022-12-01)"
   sodipodi:docname="MorePointsIcons.svg"
   xml:space="preserve"
   xmlns:inkscape="http://www.inkscape.org/namespaces/inkscape"
   xmlns:sodipodi="http://sodipodi.sourceforge.net/DTD/sodipodi-0.dtd"
   xmlns="http://www.w3.org/2000/svg"
   xmlns:svg="http://www.w3.org/2000/svg"><sodipodi:namedview
     id="namedview7"
     pagecolor="#ffffff"
     bordercolor="#999999"
     borderopacity="1"
     inkscape:showpageshadow="0"
     inkscape:pageopacity="0"
     inkscape:pagecheckerboard="0"
     inkscape:deskcolor="#d1d1d1"
     inkscape:document-units="mm"
     showgrid="true"
     inkscape:zoom="0.97102975"
     inkscape:cx="11.843097"
     inkscape:cy="145.72159"
     inkscape:window-width="1366"
     inkscape:window-height="713"
     inkscape:window-x="0"
     inkscape:window-y="33"
     inkscape:window-maximized="1"
     inkscape:current-layer="layer1"><inkscape:grid
       type="xygrid"
       id="grid132"
       spacingx="4.2333333"
       spacingy="4.2333333" /></sodipodi:namedview><defs
     id="defs2" /><g
     inkscape:label="Capa 1"
     inkscape:groupmode="layer"
     id="layer1"
     transform="translate(-0.19999999)"><g
       inkscape:label="Capa 1"
       id="layer1-6"
       transform="translate(-39.85453,-13.047843)"
       style="fill:#a02c2c;fill-opacity:1"><rect
         style="fill:#a02c2c;fill-opacity:1;stroke-width:0.755202"
         id="rect1748-2"
         width="31.999577"
         height="31.999996"
         x="39.85453"
         y="13.047843"
         ry="0"
         inkscape:export-filename="sample.svg"
         inkscape:export-xdpi="96"
         inkscape:export-ydpi="96" /><path
         id="rect1748"
         style="opacity:1;fill:#a02c2c;fill-opacity:1;stroke-width:0.755202"
         d="m 48.468888,22.881395 -8.614563,9.27577 v 12.890678 h 32 v -11.56536 l -2.643155,-3.033101 -7.007895,6.614051 z" /><ellipse
         style="opacity:1;fill:#a02c2c;fill-opacity:1;stroke-width:0.755202"
         id="path2150"
         cx="63.973206"
         cy="22.881397"
         rx="3.5900388"
         ry="3.598201" /></g><g
       id="SVGRepo_iconCarrier-9"
       transform="matrix(0.03879695,0,0,0.03879695,6.011607,6.4631264)"
       style="fill:#ffffff"> <g
   id="g2217"
   style="fill:#ffffff"> <g
   id="g2215"
   style="fill:#ffffff"> <path
   d="M 447.283,99.79 352.384,4.891 C 349.253,1.759 345.006,0 340.578,0 H 76.522 C 67.302,0 59.826,7.475 59.826,16.696 v 478.609 c 0,9.22 7.475,16.696 16.696,16.696 h 358.957 c 9.22,0 16.696,-7.475 16.696,-16.696 V 111.596 c -0.001,-4.429 -1.761,-8.675 -4.892,-11.806 z m -28.5,378.819 H 93.217 V 33.391 h 240.445 l 85.12,85.12 v 360.098 z"
   id="path2213"
   style="fill:#ffffff" /> </g> </g> <g
   id="g2223"
   style="fill:#ffffff"> <g
   id="g2221"
   style="fill:#ffffff"> <path
   d="m 334.127,351.364 c -26.569,0 -48.186,21.616 -48.186,48.186 0,26.57 21.616,48.186 48.186,48.186 26.57,0 48.186,-21.616 48.186,-48.186 0,-26.57 -21.617,-48.186 -48.186,-48.186 z m 0,62.981 c -8.157,0 -14.795,-6.637 -14.795,-14.795 0,-8.158 6.637,-14.795 14.795,-14.795 8.158,0 14.795,6.637 14.795,14.795 0,8.158 -6.638,14.795 -14.795,14.795 z"
   id="path2219"
   style="fill:#ffffff" /> </g> </g> <g
   id="g2229"
   style="fill:#ffffff"> <g
   id="g2227"
   style="fill:#ffffff"> <path
   d="m 189.263,382.855 h -42.88 c -9.22,0 -16.696,7.475 -16.696,16.696 0,9.221 7.475,16.696 16.696,16.696 h 42.88 c 9.22,0 16.696,-7.475 16.696,-16.696 0,-9.221 -7.476,-16.696 -16.696,-16.696 z"
   id="path2225"
   style="fill:#ffffff" /> </g> </g> <g
   id="g2235"
   style="fill:#ffffff"> <g
   id="g2233"
   style="fill:#ffffff"> <path
   d="m 189.263,95.754 h -42.88 c -9.22,0 -16.696,7.475 -16.696,16.696 0,9.22 7.474,16.696 16.696,16.696 h 42.88 c 9.22,0 16.696,-7.475 16.696,-16.696 0,-9.221 -7.475,-16.696 -16.696,-16.696 z"
   id="path2231"
   style="fill:#ffffff" /> </g> </g> <g
   id="g2241"
   style="fill:#ffffff"> <g
   id="g2239"
   style="fill:#ffffff"> <path
   d="M 365.618,172.134 H 146.383 c -9.222,0 -16.696,7.475 -16.696,16.696 0,9.22 7.475,16.696 16.696,16.696 h 219.235 c 9.22,0 16.696,-7.475 16.696,-16.696 0,-9.22 -7.475,-16.696 -16.696,-16.696 z"
   id="path2237"
   style="fill:#ffffff" /> </g> </g> <g
   id="g2247"
   style="fill:#ffffff"> <g
   id="g2245"
   style="fill:#ffffff"> <path
   d="M 365.617,248.515 H 146.383 c -9.22,0 -16.696,7.475 -16.696,16.696 0,9.22 7.475,16.696 16.696,16.696 h 219.235 c 9.22,0 16.696,-7.475 16.696,-16.696 0,-9.221 -7.475,-16.696 -16.697,-16.696 z"
   id="path2243"
   style="fill:#ffffff" /> </g> </g> </g></g></svg>
