<?xml version="1.0" encoding="UTF-8" standalone="no"?>
<!-- Created with Inkscape (http://www.inkscape.org/) -->

<svg
   width="31.800001mm"
   height="32.000004mm"
   viewBox="0 0 31.800001 32.000004"
   version="1.1"
   id="svg5"
   inkscape:export-filename="../../../Descargas/firefox/chat.svg"
   inkscape:export-xdpi="25.559748"
   inkscape:export-ydpi="25.559748"
   inkscape:version="1.2.2 (b0a8486, 2022-12-01)"
   sodipodi:docname="MorePointsIcons.svg"
   xml:space="preserve"
   xmlns:inkscape="http://www.inkscape.org/namespaces/inkscape"
   xmlns:sodipodi="http://sodipodi.sourceforge.net/DTD/sodipodi-0.dtd"
   xmlns="http://www.w3.org/2000/svg"
   xmlns:svg="http://www.w3.org/2000/svg"><sodipodi:namedview
     id="namedview7"
     pagecolor="#ffffff"
     bordercolor="#999999"
     borderopacity="1"
     inkscape:showpageshadow="0"
     inkscape:pageopacity="0"
     inkscape:pagecheckerboard="0"
     inkscape:deskcolor="#d1d1d1"
     inkscape:document-units="mm"
     showgrid="true"
     inkscape:zoom="0.97102975"
     inkscape:cx="11.843097"
     inkscape:cy="145.72159"
     inkscape:window-width="1366"
     inkscape:window-height="713"
     inkscape:window-x="0"
     inkscape:window-y="33"
     inkscape:window-maximized="1"
     inkscape:current-layer="layer1"><inkscape:grid
       type="xygrid"
       id="grid132"
       spacingx="4.2333333"
       spacingy="4.2333333" /></sodipodi:namedview><defs
     id="defs2" /><g
     inkscape:label="Capa 1"
     inkscape:groupmode="layer"
     id="layer1"
     transform="translate(-0.19999999)"><g
       inkscape:label="Capa 1"
       id="layer1-6"
       transform="translate(-39.85453,-13.047843)"
       style="fill:#2ca02c;fill-opacity:1"><rect
         style="fill:#2ca02c;fill-opacity:1;stroke-width:0.755202"
         id="rect1748-2"
         width="31.999577"
         height="31.999996"
         x="39.85453"
         y="13.047843"
         ry="0"
         inkscape:export-filename="sample.svg"
         inkscape:export-xdpi="96"
         inkscape:export-ydpi="96" /><path
         id="rect1748"
         style="opacity:1;fill:#2ca02c;fill-opacity:1;stroke-width:0.755202"
         d="m 48.468888,22.881395 -8.614563,9.27577 v 12.890678 h 32 v -11.56536 l -2.643155,-3.033101 -7.007895,6.614051 z" /><ellipse
         style="opacity:1;fill:#2ca02c;fill-opacity:1;stroke-width:0.755202"
         id="path2150"
         cx="63.973206"
         cy="22.881397"
         rx="3.5900388"
         ry="3.598201" /></g><g
       id="SVGRepo_iconCarrier-5"
       transform="matrix(0.03767958,0,0,0.03767958,7.3983204,6.6515509)"
       style="fill:#ffffff"> <g
   id="g2721"
   style="fill:#ffffff"> <g
   id="g2719"
   style="fill:#ffffff"> <path
   d="m 429.571,256.151 -26.996,-57.284 26.995,-57.283 c 5.21,-11.056 -2.867,-23.814 -15.103,-23.814 H 306.959 V 70.052 c 0,-9.22 -7.475,-16.696 -16.696,-16.696 H 114.21 V 16.696 C 114.21,7.475 106.735,0 97.515,0 88.295,0 80.819,7.475 80.819,16.696 c 0,12.655 0,440.588 0,478.609 0,9.22 7.475,16.696 16.696,16.696 9.22,0 16.696,-7.475 16.696,-16.696 v -279.74 h 35.154 v 47.389 c 0,0.009 0,0.018 0,0.027 0,9.756 7.597,16.988 16.71,16.988 0.019,0 0.037,-0.003 0.056,-0.003 h 248.338 c 12.222,-0.001 20.318,-12.745 15.102,-23.815 z M 114.21,182.173 V 86.747 h 159.358 c 0,11.634 0,83.844 0,95.426 -7.539,0 -151.089,0 -159.358,0 z m 68.547,53.632 v -20.241 h 39.037 z m 186.259,-29.821 19.128,40.588 H 234.531 c 0.928,-0.482 62.592,-32.451 63.514,-32.938 5.445,-2.873 8.864,-8.497 8.91,-14.66 0,-0.036 0.006,-0.07 0.006,-0.107 v -47.705 h 81.183 l -19.128,40.587 c -2.124,4.508 -2.124,9.729 0,14.235 z"
   id="path2717"
   style="fill:#ffffff" /> </g> </g> </g></g></svg>
