<?xml version="1.0" encoding="UTF-8" standalone="no"?>
<!-- Created with Inkscape (http://www.inkscape.org/) -->

<svg
   width="32mm"
   height="32.000004mm"
   viewBox="0 0 32 32.000004"
   version="1.1"
   id="svg5"
   xml:space="preserve"
   xmlns="http://www.w3.org/2000/svg"
   xmlns:svg="http://www.w3.org/2000/svg"><defs
     id="defs2" /><g
     id="layer1"
     transform="translate(2.0499326e-4)"><g
       id="layer1-6"
       transform="translate(-39.85453,-13.047843)"
       style="fill:#aa8800;fill-opacity:1"><rect
         style="fill:#aa8800;fill-opacity:1;stroke-width:0.755202"
         id="rect1748-2"
         width="31.999577"
         height="31.999996"
         x="39.85453"
         y="13.047843"
         ry="0" /><path
         id="rect1748"
         style="opacity:1;fill:#aa8800;fill-opacity:1;stroke-width:0.755202"
         d="m 48.468888,22.881395 -8.614563,9.27577 v 12.890678 h 32 v -11.56536 l -2.643155,-3.033101 -7.007895,6.614051 z" /><ellipse
         style="opacity:1;fill:#aa8800;fill-opacity:1;stroke-width:0.755202"
         id="path2150"
         cx="63.973206"
         cy="22.881397"
         rx="3.5900388"
         ry="3.598201" /></g><path
       style="fill:#ffffff"
       d="M 9.769809,23.836939 C 9.048716,23.803249 8.648186,23.701626 8.203906,23.439649 7.627939,23.10002 7.179022,22.551602 6.97414,21.937309 6.796001,21.403198 6.797493,21.452293 6.797493,16.123937 c 0,-5.328356 -0.0015,-5.279262 0.176647,-5.813372 C 7.127423,9.8509791 7.445201,9.3885545 7.821701,9.0772105 8.080172,8.8634696 8.487096,8.636794 8.754872,8.5573916 9.245114,8.4120217 9.380563,8.4047722 11.886677,8.3897709 c 3.192637,-0.019111 3.453566,3.99e-5 4.059748,0.2979609 0.357822,0.1758595 0.5133,0.2998394 1.180088,0.9410119 0.39145,0.3764133 0.621211,0.5754383 0.713568,0.6181133 0.135864,0.06278 0.143333,0.06299 2.876547,0.08006 1.833352,0.01145 2.802715,0.02798 2.928818,0.04993 0.810309,0.141053 1.374035,0.462289 1.840337,1.048704 0.28384,0.356954 0.456001,0.737192 0.55831,1.233096 0.04282,0.207565 0.04895,0.654772 0.05823,4.248236 0.0115,4.453885 0.01015,4.494255 -0.168304,5.029301 -0.216608,0.649442 -0.687374,1.203573 -1.317135,1.550379 -0.291972,0.160788 -0.536136,0.241603 -0.942441,0.311936 -0.2494,0.04317 -0.898735,0.04828 -6.858074,0.0539 -3.620425,0.0034 -6.791378,-0.0035 -7.046562,-0.01546 z m 13.759645,-1.973624 c 0.322803,-0.113203 0.551275,-0.361371 0.614321,-0.667282 0.04454,-0.216126 0.06783,-7.340675 0.02576,-7.879645 -0.03313,-0.424391 -0.07609,-0.560339 -0.233895,-0.740063 -0.137075,-0.156119 -0.303945,-0.24155 -0.54223,-0.277599 -0.136737,-0.02069 -1.010392,-0.03182 -2.537342,-0.03234 -1.280841,-4.35e-4 -2.518014,-0.01281 -2.749275,-0.02751 -0.457443,-0.02907 -0.745092,-0.09209 -1.055046,-0.231163 -0.412598,-0.185119 -0.603948,-0.338965 -1.482296,-1.191757 -0.288535,-0.280141 -0.410992,-0.379047 -0.521968,-0.421584 -0.139113,-0.05332 -0.253718,-0.05558 -2.827324,-0.05558 -2.456621,0 -2.695754,0.0042 -2.841823,0.04992 -0.300721,0.09413 -0.552606,0.366826 -0.615036,0.665855 -0.04584,0.219563 -0.06745,9.283572 -0.02343,9.825068 0.03636,0.447185 0.07936,0.566873 0.270569,0.753071 0.160948,0.15673 0.324851,0.232607 0.56314,0.260698 0.107927,0.01272 3.26279,0.02145 7.010807,0.0194 6.126625,-0.0034 6.82775,-0.0084 6.945069,-0.0495 z"
       id="path2" /></g></svg>
