<?xml version="1.0" encoding="UTF-8" standalone="no"?>
<!-- Created with Inkscape (http://www.inkscape.org/) -->

<svg
   width="31.800001mm"
   height="32.000004mm"
   viewBox="0 0 31.800001 32.000004"
   version="1.1"
   id="svg5"
   xml:space="preserve"
   xmlns="http://www.w3.org/2000/svg"
   xmlns:svg="http://www.w3.org/2000/svg"><defs
     id="defs2" /><g
     id="layer1"
     transform="translate(-0.19999999)"><g
       id="layer1-6"
       transform="translate(-39.85453,-13.047843)"
       style="fill:#0f172a;fill-opacity:1"><rect
         style="fill:#0f172a;fill-opacity:1;stroke-width:0.755202"
         id="rect1748-2"
         width="31.999577"
         height="31.999996"
         x="39.85453"
         y="13.047843"
         ry="0" /><path
         id="rect1748"
         style="opacity:1;fill:#0f172a;fill-opacity:1;stroke-width:0.755202"
         d="m 48.468888,22.881395 -8.614563,9.27577 v 12.890678 h 32 v -11.56536 l -2.643155,-3.033101 -7.007895,6.614051 z" /><ellipse
         style="opacity:1;fill:#0f172a;fill-opacity:1;stroke-width:0.755202"
         id="path2150"
         cx="63.973206"
         cy="22.881397"
         rx="3.5900388"
         ry="3.598201" /></g><g
       id="SVGRepo_iconCarrier"
       transform="matrix(0.78708002,0,0,0.78708002,6.8558301,7.2339156)"
       style="fill:#ffffff"><title
         id="title1">Vultr icon</title><path
         d="M 8.36,2.17 A 1.194,1.194 0 0 0 7.348,1.599 H 1.2 a 1.2,1.2 0 0 0 -1.2,1.2 1.211,1.211 0 0 0 0.182,0.64 l 11.6,18.4 a 1.206,1.206 0 0 0 2.035,0 l 3.075,-4.874 a 1.229,1.229 0 0 0 0.182,-0.64 1.211,1.211 0 0 0 -0.182,-0.642 z m 10.349,8.68 a 1.206,1.206 0 0 0 2.035,0 L 21.8,9.176 23.817,5.976 A 1.211,1.211 0 0 0 24,5.336 1.229,1.229 0 0 0 23.817,4.696 L 22.217,2.17 A 1.206,1.206 0 0 0 21.201,1.599 h -6.148 a 1.2,1.2 0 0 0 -1.201,1.2 1.143,1.143 0 0 0 0.188,0.64 z"
         id="path1"
         style="fill:#ffffff" /></g></g></svg>
