<?xml version="1.0" encoding="UTF-8" standalone="no"?>
<!-- Created with Inkscape (http://www.inkscape.org/) -->

<svg
   width="64mm"
   height="64.000008mm"
   viewBox="0 0 64 64.000008"
   version="1.1"
   id="svg5"
   inkscape:export-filename="../../../Descargas/firefox/audio.svg"
   inkscape:export-xdpi="12.739812"
   inkscape:export-ydpi="12.739812"
   inkscape:version="1.2.2 (b0a8486, 2022-12-01)"
   sodipodi:docname="MorePointsIcons.svg"
   xml:space="preserve"
   xmlns:inkscape="http://www.inkscape.org/namespaces/inkscape"
   xmlns:sodipodi="http://sodipodi.sourceforge.net/DTD/sodipodi-0.dtd"
   xmlns="http://www.w3.org/2000/svg"
   xmlns:svg="http://www.w3.org/2000/svg"><sodipodi:namedview
     id="namedview7"
     pagecolor="#ffffff"
     bordercolor="#999999"
     borderopacity="1"
     inkscape:showpageshadow="0"
     inkscape:pageopacity="0"
     inkscape:pagecheckerboard="0"
     inkscape:deskcolor="#d1d1d1"
     inkscape:document-units="mm"
     showgrid="true"
     inkscape:zoom="0.97102975"
     inkscape:cx="93.200028"
     inkscape:cy="122.0354"
     inkscape:window-width="1366"
     inkscape:window-height="713"
     inkscape:window-x="0"
     inkscape:window-y="33"
     inkscape:window-maximized="1"
     inkscape:current-layer="layer1"><inkscape:grid
       type="xygrid"
       id="grid132"
       spacingx="4.2333333"
       spacingy="4.2333333" /></sodipodi:namedview><defs
     id="defs2" /><g
     inkscape:label="Capa 1"
     inkscape:groupmode="layer"
     id="layer1"><rect
       style="fill:#00aa88;fill-opacity:1;stroke-width:0.55482"
       id="rect1343-6"
       width="46.566666"
       height="46.566666"
       x="8.4666662"
       y="12.700001"
       ry="4.2333336" /><g
       id="g984"
       style="fill:#ffffff;fill-opacity:1"
       transform="translate(0.52916364,-1.5875015)"><g
         id="SVGRepo_bgCarrier"
         stroke-width="0"
         transform="matrix(1.2887768,0,0,1.2887768,17.202185,21.108661)"
         style="fill:#ffffff;fill-opacity:1" /><g
         id="SVGRepo_tracerCarrier"
         stroke-linecap="round"
         stroke-linejoin="round"
         transform="matrix(1.2887768,0,0,1.2887768,17.202185,21.108661)"
         style="fill:#ffffff;fill-opacity:1" /><g
         id="SVGRepo_iconCarrier"
         transform="matrix(1.2887768,0,0,1.2887768,17.202185,21.108661)"
         style="fill:#ffffff;fill-opacity:1"><path
           d="m 20.2929,9.70708 c 0.286,0.28599 0.7161,0.37152 1.0898,0.21677 C 21.7564,9.76907 22,9.40443 22,8.99997 v -6 c 0,-0.55229 -0.4477,-1 -1,-1 h -6 c -0.4045,0 -0.7691,0.24364 -0.9239,0.61732 -0.1548,0.37367 -0.0692,0.80379 0.2168,1.08979 l 1.9393,1.93933 -6.64646,6.64649 c -0.39052,0.3905 -0.39052,1.0237 0,1.4142 l 0.70706,0.7071 c 0.3906,0.3906 1.0237,0.3906 1.4143,0 l 6.6465,-6.64646 z"
           fill="#000000"
           id="path408"
           style="fill:#ffffff;fill-opacity:1" /><path
           d="m 4.5,8.00006 c 0,-0.27614 0.22386,-0.5 0.5,-0.5 h 5.0625 c 0.5523,0 1,-0.44772 1,-1 v -1 c 0,-0.55229 -0.4477,-1 -1,-1 H 5 c -1.933,0 -3.5,1.567 -3.5,3.5 V 19.0001 c 0,1.933 1.567,3.5 3.5,3.5 h 11 c 1.933,0 3.5,-1.567 3.5,-3.5 v -5.0625 c 0,-0.5523 -0.4477,-1 -1,-1 h -1 c -0.5523,0 -1,0.4477 -1,1 v 5.0625 c 0,0.2761 -0.2239,0.5 -0.5,0.5 H 5 c -0.27614,0 -0.5,-0.2239 -0.5,-0.5 z"
           fill="#000000"
           id="path410"
           style="fill:#ffffff;fill-opacity:1" /></g></g></g></svg>
