<?xml version="1.0" encoding="UTF-8" standalone="no"?>
<!-- Created with Inkscape (http://www.inkscape.org/) -->

<svg
   width="391.8428"
   height="184.30981"
   viewBox="0 0 103.67507 48.765305"
   version="1.1"
   id="svg5"
   xml:space="preserve"
   inkscape:version="1.2.2 (b0a8486, 2022-12-01)"
   sodipodi:docname="Iconos.svg"
   xmlns:inkscape="http://www.inkscape.org/namespaces/inkscape"
   xmlns:sodipodi="http://sodipodi.sourceforge.net/DTD/sodipodi-0.dtd"
   xmlns="http://www.w3.org/2000/svg"
   xmlns:svg="http://www.w3.org/2000/svg"><sodipodi:namedview
     id="namedview7"
     pagecolor="#ffffff"
     bordercolor="#999999"
     borderopacity="1"
     inkscape:showpageshadow="0"
     inkscape:pageopacity="0"
     inkscape:pagecheckerboard="0"
     inkscape:deskcolor="#d1d1d1"
     inkscape:document-units="mm"
     showgrid="true"
     inkscape:zoom="0.91757853"
     inkscape:cx="1343.2093"
     inkscape:cy="494.78054"
     inkscape:window-width="1366"
     inkscape:window-height="706"
     inkscape:window-x="0"
     inkscape:window-y="33"
     inkscape:window-maximized="1"
     inkscape:current-layer="text2966-0-3"
     showguides="true"><inkscape:grid
       type="axonomgrid"
       id="grid19842"
       visible="true"
       enabled="false" /><inkscape:grid
       type="xygrid"
       id="grid7047"
       spacingx="0.396875"
       spacingy="0.396875"
       enabled="true" /></sodipodi:namedview><defs
     id="defs2"><rect
       x="192.83675"
       y="153.38448"
       width="882.8255"
       height="268.14563"
       id="rect2968-3-36753" /></defs><g
     inkscape:label="Capa 1"
     inkscape:groupmode="layer"
     id="layer1"
     transform="translate(-106.23022,-96.633163)"><rect
       style="opacity:0;fill:#262626;fill-opacity:1;stroke-width:0.628779"
       id="rect40791"
       width="83.416672"
       height="83.416672"
       x="131.18007"
       y="69.774666"
       inkscape:export-filename="icon.png"
       inkscape:export-xdpi="61.57576"
       inkscape:export-ydpi="61.57576" /><g
       aria-label="More 
Points"
       transform="matrix(0.2457432,0,0,0.2457432,95.118265,52.111292)"
       id="text2966-0-56"
       style="font-size:96px;font-family:Impact;-inkscape-font-specification:Impact;white-space:pre;shape-inside:url(#rect2968-3-36753);display:inline;fill:#1f78dd;stroke-width:2"><path
         d="m 232.35156,249.70358 -23.01562,-60.65625 h -0.375 q 0.1875,1.92187 0.32812,4.6875 0.14063,2.76562 0.23438,6.04687 0.0937,3.23438 0.0937,6.60938 v 43.3125 h -7.40625 v -68.53125 h 11.8125 l 21.70312,57 h 0.32813 l 22.03125,-57 h 11.71875 v 68.53125 h -7.875 v -43.875 q 0,-3.04688 0.0937,-6.09375 0.0937,-3.09375 0.23437,-5.8125 0.14063,-2.76563 0.28125,-4.78125 h -0.375 l -23.29687,60.5625 z"
         style="font-family:'Open Sans';-inkscape-font-specification:'Open Sans'"
         id="path4717" /><path
         d="m 331.67969,223.92233 q 0,6.32812 -1.64063,11.29687 -1.64062,4.96875 -4.73437,8.39063 -3.09375,3.42187 -7.5,5.25 -4.35938,1.78125 -9.89063,1.78125 -5.15625,0 -9.46875,-1.78125 -4.26562,-1.82813 -7.40625,-5.25 -3.09375,-3.42188 -4.82812,-8.39063 -1.6875,-4.96875 -1.6875,-11.29687 0,-8.4375 2.85937,-14.34375 2.85938,-5.95313 8.15625,-9.04688 5.34375,-3.14062 12.70313,-3.14062 7.03125,0 12.28125,3.14062 5.29687,3.14063 8.20312,9.09375 2.95313,5.90625 2.95313,14.29688 z m -39.09375,0 q 0,6.1875 1.64062,10.73437 1.64063,4.54688 5.0625,7.03125 3.42188,2.48438 8.8125,2.48438 5.34375,0 8.76563,-2.48438 3.46875,-2.48437 5.10937,-7.03125 1.64063,-4.54687 1.64063,-10.73437 0,-6.14063 -1.64063,-10.59375 -1.64062,-4.5 -5.0625,-6.9375 -3.42187,-2.4375 -8.85937,-2.4375 -8.01563,0 -11.76563,5.29687 -3.70312,5.29688 -3.70312,14.67188 z"
         style="font-family:'Open Sans';-inkscape-font-specification:'Open Sans'"
         id="path4719" /><path
         d="m 368.47656,197.39108 q 1.54688,0 3.23438,0.1875 1.6875,0.14062 3,0.42187 l -0.98438,7.21875 q -1.26562,-0.32812 -2.8125,-0.51562 -1.54687,-0.1875 -2.90625,-0.1875 -3.09375,0 -5.85937,1.26562 -2.71875,1.21875 -4.78125,3.5625 -2.0625,2.29688 -3.23438,5.57813 -1.17187,3.23437 -1.17187,7.21875 v 27.5625 h -7.82813 v -51.375 h 6.46875 l 0.84375,9.46875 h 0.32813 q 1.59375,-2.85938 3.84375,-5.20313 2.25,-2.39062 5.20312,-3.79687 3,-1.40625 6.65625,-1.40625 z"
         style="font-family:'Open Sans';-inkscape-font-specification:'Open Sans'"
         id="path4721" /><path
         d="m 404.14844,197.39108 q 6.5625,0 11.25,2.90625 4.6875,2.90625 7.17187,8.15625 2.48438,5.20312 2.48438,12.1875 v 4.82812 h -35.48438 q 0.14063,9.04688 4.5,13.78125 4.35938,4.73438 12.28125,4.73438 4.875,0 8.625,-0.89063 3.75,-0.89062 7.78125,-2.625 v 6.84375 q -3.89062,1.73438 -7.73437,2.53125 -3.79688,0.79688 -9,0.79688 -7.40625,0 -12.9375,-3 -5.48438,-3.04688 -8.53125,-8.90625 -3.04688,-5.85938 -3.04688,-14.34375 0,-8.29688 2.76563,-14.34375 2.8125,-6.09375 7.875,-9.375 5.10937,-3.28125 12,-3.28125 z m -0.0937,6.375 q -6.23438,0 -9.9375,4.07812 -3.70313,4.07813 -4.40625,11.39063 h 27.1875 q -0.0469,-4.59375 -1.45313,-8.0625 -1.35937,-3.51563 -4.17187,-5.4375 -2.8125,-1.96875 -7.21875,-1.96875 z"
         style="font-family:'Open Sans';-inkscape-font-specification:'Open Sans'"
         id="path4723" /><path
         d="m 220.11719,310.1437 q 13.26562,0 19.35937,5.20312 6.14063,5.15625 6.14063,14.8125 0,4.35938 -1.45313,8.29688 -1.40625,3.89062 -4.59375,6.89062 -3.1875,2.95313 -8.39062,4.6875 -5.15625,1.6875 -12.65625,1.6875 h -8.34375 v 26.95313 h -7.96875 V 310.1437 Z m -0.75,6.79687 h -9.1875 v 27.9375 h 7.45312 q 6.5625,0 10.92188,-1.40625 4.40625,-1.40625 6.60937,-4.54687 2.20313,-3.1875 2.20313,-8.4375 0,-6.84375 -4.35938,-10.17188 -4.35937,-3.375 -13.64062,-3.375 z"
         style="font-family:'Open Sans';-inkscape-font-specification:'Open Sans'"
         id="path4725" /><path
         d="m 303.08594,352.8937 q 0,6.32812 -1.64063,11.29687 -1.64062,4.96875 -4.73437,8.39063 -3.09375,3.42187 -7.5,5.25 -4.35938,1.78125 -9.89063,1.78125 -5.15625,0 -9.46875,-1.78125 -4.26562,-1.82813 -7.40625,-5.25 -3.09375,-3.42188 -4.82812,-8.39063 -1.6875,-4.96875 -1.6875,-11.29687 0,-8.4375 2.85937,-14.34375 2.85938,-5.95313 8.15625,-9.04688 5.34375,-3.14062 12.70313,-3.14062 7.03125,0 12.28125,3.14062 5.29687,3.14063 8.20312,9.09375 2.95313,5.90625 2.95313,14.29688 z m -39.09375,0 q 0,6.1875 1.64062,10.73437 1.64063,4.54688 5.0625,7.03125 3.42188,2.48438 8.8125,2.48438 5.34375,0 8.76563,-2.48438 3.46875,-2.48437 5.10937,-7.03125 1.64063,-4.54687 1.64063,-10.73437 0,-6.14063 -1.64063,-10.59375 -1.64062,-4.5 -5.0625,-6.9375 -3.42187,-2.4375 -8.85937,-2.4375 -8.01563,0 -11.76563,5.29687 -3.70312,5.29688 -3.70312,14.67188 z"
         style="font-family:'Open Sans';-inkscape-font-specification:'Open Sans'"
         id="path4727" /><path
         d="m 324.32031,327.29995 v 51.375 h -7.78125 v -51.375 z m -3.79687,-19.21875 q 1.92187,0 3.28125,1.26562 1.40625,1.21875 1.40625,3.84375 0,2.57813 -1.40625,3.84375 -1.35938,1.26563 -3.28125,1.26563 -2.01563,0 -3.375,-1.26563 -1.3125,-1.26562 -1.3125,-3.84375 0,-2.625 1.3125,-3.84375 1.35937,-1.26562 3.375,-1.26562 z"
         style="font-family:'Open Sans';-inkscape-font-specification:'Open Sans'"
         id="path4729" /><path
         d="m 365.10156,326.36245 q 9.14063,0 13.82813,4.5 4.6875,4.45312 4.6875,14.34375 v 33.46875 h -7.6875 v -32.95313 q 0,-6.42187 -2.95313,-9.60937 -2.90625,-3.1875 -8.95312,-3.1875 -8.53125,0 -12,4.82812 -3.46875,4.82813 -3.46875,14.01563 v 26.90625 h -7.78125 v -51.375 h 6.28125 l 1.17187,7.40625 h 0.42188 q 1.64062,-2.71875 4.17187,-4.54688 2.53125,-1.875 5.67188,-2.8125 3.14062,-0.98437 6.60937,-0.98437 z"
         style="font-family:'Open Sans';-inkscape-font-specification:'Open Sans'"
         id="path4731" /><path
         d="m 416.24219,373.23745 q 1.92187,0 3.9375,-0.32813 2.01562,-0.32812 3.28125,-0.79687 v 6.04687 q -1.35938,0.60938 -3.79688,1.03125 -2.39062,0.42188 -4.6875,0.42188 -4.07812,0 -7.40625,-1.40625 -3.32812,-1.45313 -5.34375,-4.875 -1.96875,-3.42188 -1.96875,-9.46875 V 333.3937 h -7.3125 v -3.79688 l 7.35938,-3.04687 3.09375,-11.15625 h 4.6875 v 11.90625 h 15.04687 v 6.09375 h -15.04687 v 30.23437 q 0,4.82813 2.20312,7.21875 2.25,2.39063 5.95313,2.39063 z"
         style="font-family:'Open Sans';-inkscape-font-specification:'Open Sans'"
         id="path4733" /><path
         d="m 467.10156,364.61245 q 0,4.92187 -2.48437,8.29687 -2.4375,3.32813 -7.03125,5.01563 -4.54688,1.6875 -10.875,1.6875 -5.39063,0 -9.32813,-0.84375 -3.9375,-0.84375 -6.89062,-2.39063 v -7.17187 q 3.14062,1.54687 7.5,2.8125 4.35937,1.26562 8.90625,1.26562 6.65625,0 9.65625,-2.15625 3,-2.15625 3,-5.85937 0,-2.10938 -1.21875,-3.70313 -1.17188,-1.64062 -3.98438,-3.14062 -2.8125,-1.54688 -7.78125,-3.375 -4.92187,-1.875 -8.53125,-3.70313 -3.5625,-1.875 -5.53125,-4.54687 -1.92187,-2.67188 -1.92187,-6.9375 0,-6.51563 5.25,-9.98438 5.29687,-3.51562 13.875,-3.51562 4.64062,0 8.67187,0.9375 4.07813,0.89062 7.59375,2.4375 l -2.625,6.23437 q -3.1875,-1.35937 -6.79687,-2.29687 -3.60938,-0.9375 -7.35938,-0.9375 -5.39062,0 -8.29687,1.78125 -2.85938,1.78125 -2.85938,4.875 0,2.39062 1.3125,3.9375 1.35938,1.54687 4.3125,2.90625 2.95313,1.35937 7.78125,3.1875 4.82813,1.78125 8.34375,3.70312 3.51563,1.875 5.39063,4.59375 1.92187,2.67188 1.92187,6.89063 z"
         style="font-family:'Open Sans';-inkscape-font-specification:'Open Sans'"
         id="path4735" /></g><g
       id="g4715"
       transform="translate(-0.92603663,-0.66145333)"><rect
         style="fill:#1f78dd;fill-opacity:1;stroke-width:2.25;stroke-linejoin:bevel"
         id="rect2085"
         width="11.906242"
         height="11.90625"
         x="123.03125"
         y="99.21875"
         ry="0" /><rect
         style="fill:#1f78dd;fill-opacity:1;stroke-width:2.25;stroke-linejoin:bevel"
         id="rect2085-2"
         width="11.90624"
         height="11.90625"
         x="107.15626"
         y="115.09376"
         ry="0" /><rect
         style="fill:#1f78dd;fill-opacity:1;stroke-width:2.25;stroke-linejoin:bevel"
         id="rect2085-2-9"
         width="11.906242"
         height="11.906242"
         x="123.03125"
         y="130.96875"
         ry="0" /><path
         style="fill:none;fill-opacity:1;stroke:#1f78dd;stroke-width:4;stroke-linejoin:bevel;stroke-dasharray:none;stroke-opacity:1"
         d="m 128.98437,105.17187 -15.875,15.875 15.875,15.875"
         id="path3650" /></g></g></svg>
